<?xml version="1.0" standalone="no"?>
<!DOCTYPE svg PUBLIC "-//W3C//DTD SVG 20010904//EN"
 "http://www.w3.org/TR/2001/REC-SVG-20010904/DTD/svg10.dtd">
<svg version="1.0" xmlns="http://www.w3.org/2000/svg"
 width="260.000000pt" height="260.000000pt" viewBox="0 0 260.000000 260.000000"
 preserveAspectRatio="xMidYMid meet">
<metadata>
Created by potrace 1.11, written by Peter Selinger 2001-2013
</metadata>
<g transform="translate(0.000000,260.000000) scale(0.100000,-0.100000)"
fill="#000000" stroke="none">
<path d="M903 1887 c-98 -106 -196 -212 -218 -236 -22 -24 -53 -58 -70 -75
-16 -18 -73 -79 -125 -136 -52 -57 -106 -116 -120 -130 -14 -15 -68 -73 -120
-130 -52 -57 -112 -121 -132 -144 -21 -22 -37 -41 -35 -42 6 -5 180 -74 181
-72 1 2 35 41 77 88 41 47 89 100 105 119 16 18 47 53 69 78 l40 44 235 -96
c129 -53 247 -101 263 -107 31 -12 29 0 27 -188 -2 -157 -3 -224 -1 -255 1
-15 21 -28 88 -55 48 -19 91 -37 96 -39 8 -3 4 1486 -4 1493 -2 2 -43 20 -91
39 l-87 35 -178 -191z m203 -54 c-3 -31 -9 -180 -12 -332 -3 -152 -7 -281 -9
-288 -5 -14 -410 148 -410 164 0 10 48 65 211 242 81 88 125 142 174 208 25
35 47 63 49 63 2 0 1 -25 -3 -57z"/>
<path d="M1389 1918 c-3 -171 0 -1340 3 -1343 7 -8 167 -9 174 -2 4 4 7 111 6
239 l0 232 97 95 c53 53 104 102 113 109 13 10 47 -34 258 -335 l242 -348 116
2 c63 2 117 4 118 6 2 2 -81 118 -184 259 -103 140 -195 266 -205 279 -9 13
-58 79 -107 146 -50 67 -90 126 -90 130 0 4 49 55 109 113 243 234 451 438
451 443 0 2 -54 5 -119 6 l-119 1 -339 -341 -340 -342 -1 314 c0 173 -1 326
-1 342 l-1 27 -90 0 -90 0 -1 -32z"/>
</g>
</svg>
